<svg width="241" height="42" viewBox="0 0 241 42" fill="none" xmlns="http://www.w3.org/2000/svg">
<path d="M28.0968 11.6236C27.2528 10.8464 26.2751 10.2991 25.1638 9.98573C24.0524 9.67237 22.9577 9.5136 21.8839 9.5136C20.1416 9.5136 18.5623 9.85621 17.1459 10.5414C15.7254 11.2266 14.4928 12.1458 13.4399 13.2906C12.3828 14.4396 11.5305 15.7181 10.8745 17.1262C10.2186 18.5342 9.76733 19.9422 9.52082 21.3503C9.24506 22.9045 9.21999 24.4045 9.44979 25.8501C9.67541 27.2958 10.1434 28.5743 10.8578 29.6857C11.5681 30.797 12.5165 31.6786 13.699 32.3262C14.8814 32.9739 16.2476 33.2997 17.8061 33.2997C18.9175 33.2997 20.079 33.1159 21.2948 32.7441C22.5065 32.3722 23.6763 31.7914 24.8003 30.9934C25.7153 30.3416 26.5049 29.5269 27.1735 28.545C27.4283 28.169 27.9339 28.0729 28.3141 28.3236L33.5994 31.7998C33.9922 32.0588 34.0883 32.5811 33.8292 32.9697C32.7554 34.5866 31.3349 35.9946 29.5717 37.1896C27.5495 38.56 25.356 39.6087 22.9911 40.3274C20.6221 41.0502 18.345 41.4095 16.1599 41.4095C13.3062 41.4095 10.791 40.8246 8.6058 39.6589C6.42064 38.4932 4.64075 36.9347 3.26196 34.9919C1.88318 33.0491 0.934737 30.8597 0.416648 28.4364C-0.101441 26.0089 -0.134864 23.5396 0.308019 21.0202C0.734189 18.6136 1.59489 16.2488 2.89011 13.9341C4.18951 11.6194 5.85658 9.51778 7.89134 7.62508C9.93027 5.73657 12.27 4.22826 14.9148 3.09598C17.5596 1.96789 20.4383 1.39966 23.5468 1.39966C27.2528 1.39966 30.3238 2.19768 32.768 3.78955" fill="#BABAB8"/>
<path d="M57.8494 18.8935C57.7784 19.2863 57.4441 19.5662 57.043 19.5787C55.1503 19.6456 53.3746 19.984 51.7117 20.594C49.8483 21.2792 48.411 22.2903 47.3999 23.6232L44.4334 40.4402C44.3624 40.8371 44.0156 41.1296 43.6145 41.1296H35.4211L40.3848 12.9773C40.4558 12.5803 40.8026 12.2879 41.2037 12.2879H47.6798C48.1979 12.2879 48.5906 12.7558 48.4987 13.2656L47.6923 17.8448C49.0377 15.8811 50.6045 14.3435 52.3969 13.2321C54.1852 12.1208 55.9525 11.5483 57.7032 11.5107C57.8285 11.5107 57.9956 11.5107 58.1711 11.5149C58.6808 11.5233 59.0611 11.9912 58.9733 12.4926L57.8452 18.8935H57.8494Z" fill="#BABAB8"/>
<path d="M70.1666 41.6855C67.6848 41.6855 65.5497 41.2927 63.7615 40.5031C61.9732 39.7176 60.5234 38.6438 59.412 37.2901C58.3007 35.9364 57.5444 34.3696 57.1559 32.5939C56.7631 30.8181 56.7422 28.9589 57.0848 27.016C57.5737 24.2501 58.6349 21.7307 60.2769 19.4578C61.9189 17.1849 64.0289 15.3465 66.611 13.9468C69.1931 12.5471 72.1303 11.8452 75.4269 11.8452C78.7234 11.8452 81.4099 12.5388 83.4781 13.9259C85.5463 15.3131 86.9961 17.1264 87.8234 19.37C88.6507 21.6137 88.8303 24.0496 88.3707 26.6734C88.2788 27.1832 88.166 27.6845 88.0239 28.1776C87.9529 28.4199 87.8902 28.6455 87.8276 28.8586C87.7273 29.2179 87.3972 29.4644 87.0254 29.4644H66.0971C65.9843 30.7262 66.1597 31.7875 66.6193 32.6523C67.0789 33.5172 67.7474 34.1732 68.6332 34.6244C69.519 35.0757 70.4967 35.3013 71.5704 35.3013C72.9033 35.3013 74.211 34.9879 75.4853 34.357C76.5717 33.8222 77.424 33.1287 78.0465 32.2721C78.2513 31.9922 78.6106 31.8794 78.9407 31.9755L84.4015 33.5799C84.9655 33.747 85.1912 34.4322 84.8277 34.896C83.9461 36.0199 82.9015 37.0352 81.6857 37.9419C80.1273 39.1076 78.3724 40.0268 76.4212 40.6911C74.4701 41.3596 72.381 41.6897 70.1582 41.6897L70.1666 41.6855ZM66.8366 24.0161H79.5047C79.5632 22.8504 79.3877 21.8351 78.9866 20.9661C78.5855 20.1012 77.9588 19.4285 77.119 18.9522C76.275 18.4759 75.3015 18.2378 74.1901 18.2378C73.0787 18.2378 71.9715 18.4759 70.9813 18.9522C69.9911 19.4285 69.1388 20.1012 68.4326 20.9661C67.7265 21.831 67.1917 22.8504 66.8408 24.0161H66.8366Z" fill="#BABAB8"/>
<path d="M89.6409 26.74C90.1381 23.9281 91.1366 21.4045 92.6449 19.1567C94.1532 16.913 95.9833 15.1332 98.1434 13.817C100.299 12.5051 102.639 11.845 105.158 11.845C107.193 11.845 108.961 12.338 110.456 13.3157C111.948 14.2975 112.98 15.5844 113.552 17.1763L116.36 1.24921C116.431 0.852284 116.778 0.559814 117.179 0.559814H124.378C124.896 0.559814 125.289 1.02777 125.197 1.5375L119.962 31.2315C119.803 32.1215 119.845 32.7398 120.079 33.095C120.196 33.2705 120.35 33.3582 120.588 33.3707C121.094 33.4 121.478 33.8303 121.386 34.3275L120.216 40.553C120.154 40.8956 119.882 41.163 119.54 41.2215C118.194 41.4513 117.1 41.5641 116.251 41.5641C114.731 41.5641 113.561 41.2298 112.733 40.5655C111.906 39.897 111.484 38.9736 111.472 37.787L111.568 36.2871C110.21 38.1046 108.564 39.4541 106.629 40.3441C104.695 41.234 102.743 41.6769 100.78 41.6769C98.816 41.6769 97.0027 41.3008 95.4485 40.553C93.8942 39.8051 92.6157 38.7564 91.6129 37.4068C90.6102 36.0573 89.9375 34.4696 89.5907 32.6437C89.2439 30.8179 89.2606 28.8458 89.6325 26.7317L89.6409 26.74ZM111.305 30.2455L112.349 24.3125C112.148 23.3432 111.772 22.495 111.213 21.7764C110.653 21.0578 109.976 20.4812 109.182 20.0508C108.388 19.6205 107.544 19.4032 106.658 19.4032C105.693 19.4032 104.778 19.5996 103.913 19.9965C103.044 20.3934 102.255 20.9408 101.54 21.6427C100.822 22.3446 100.228 23.1427 99.7561 24.0451C99.284 24.9434 98.9581 25.896 98.7784 26.903C98.5946 27.9475 98.5988 28.9085 98.7993 29.7901C98.9957 30.6717 99.3508 31.4446 99.8606 32.1089C100.374 32.7733 101.022 33.2872 101.812 33.6465C102.601 34.0058 103.496 34.1855 104.494 34.1855C105.125 34.1855 105.752 34.0852 106.383 33.8888C107.009 33.6925 107.619 33.4292 108.217 33.1075C108.81 32.7816 109.374 32.3722 109.909 31.8666C110.444 31.3611 110.908 30.8221 111.305 30.2455Z" fill="#BABAB8"/>
<path d="M124.173 40.152L129.024 12.6474C129.095 12.2504 129.442 11.958 129.843 11.958H137.042C137.56 11.958 137.953 12.4259 137.861 12.9356L133.01 40.4403C132.939 40.8373 132.592 41.1297 132.191 41.1297H124.992C124.474 41.1297 124.081 40.6618 124.173 40.152ZM129.901 7.64613L131.03 1.25775C131.101 0.860829 131.447 0.568359 131.848 0.568359H139.047C139.565 0.568359 139.958 1.03631 139.866 1.54604L138.738 7.93442C138.667 8.33134 138.32 8.62381 137.919 8.62381H130.72C130.202 8.62381 129.809 8.15586 129.901 7.64613Z" fill="#BABAB8"/>
<path d="M31.5521 3.08363C31.8446 3.22569 32.137 3.3761 32.4295 3.53069L33.1857 2.18115L36.6118 10.926L27.4408 12.919L28.1135 11.5861" fill="#BABAB8"/>
<path d="M209.595 41.1296H200.934L201.678 36.9055C199.346 39.5753 195.728 41.4638 191.625 41.4638C184.564 41.4638 180.674 36.5169 182.136 28.2358L185.212 10.8047C185.283 10.4077 185.629 10.1153 186.03 10.1153H193.643C194.161 10.1153 194.554 10.5832 194.462 11.0929L191.667 26.9532C190.923 31.1773 192.866 33.5128 196.367 33.5128C199.868 33.5128 202.689 31.1773 203.437 26.9532L206.286 10.8005C206.357 10.4036 206.704 10.1111 207.105 10.1111H214.772C215.29 10.1111 215.683 10.579 215.591 11.0888L210.418 40.436C210.347 40.8329 210 41.1254 209.599 41.1254L209.595 41.1296Z" fill="white"/>
<path d="M224.996 41.5725C217.22 41.5725 212.62 37.3776 212.75 31.7831C212.762 31.3277 213.13 30.9558 213.585 30.9558H221.24C221.649 30.9558 222.017 31.2483 222.063 31.6536C222.268 33.4293 223.834 34.5699 226.12 34.5699C228.526 34.5699 229.98 33.4585 230.227 32.0672C231.108 27.066 213.832 30.6759 215.842 19.2863C216.773 14.0051 221.971 9.67236 229.959 9.67236C237.48 9.67236 241.098 13.721 240.998 19.4032C240.99 19.8628 240.618 20.2305 240.162 20.2305H233.106C232.675 20.2305 232.337 19.9004 232.283 19.4743C232.057 17.7947 230.741 16.7292 228.443 16.7292C226.145 16.7292 224.891 17.6192 224.628 19.1191C223.755 24.0661 240.902 20.5648 239.03 32.1257C238.078 37.5155 232.659 41.5725 224.996 41.5725Z" fill="white"/>
<path d="M156.278 27.3504C156.278 27.6638 156.278 28.1693 156.278 28.1693L150.24 23.143L156.274 18.4468L156.282 19.5707H156.516C160.293 19.5666 162.24 17.6739 162.767 14.674C163.297 11.6741 162.019 9.78554 158.237 9.78554H153.069L151.343 19.5791L147.007 22.9843L150.207 26.026L150.165 26.2599L147.667 40.4405C147.596 40.8375 147.249 41.1299 146.848 41.1299H139.039C138.521 41.1299 138.128 40.662 138.22 40.1522L144.805 2.80804C144.876 2.41112 145.223 2.11865 145.624 2.11865H160.318C169.878 2.11865 173.705 7.50845 172.443 14.6781C171.319 21.0414 166 26.9702 156.299 27.1206H156.286V27.3546L156.278 27.3504Z" fill="white"/>
<path d="M176.939 0H184.748C185.266 0 185.658 0.467951 185.567 0.977684L178.61 40.4318C178.539 40.8288 178.192 41.1212 177.791 41.1212H169.982C169.464 41.1212 169.071 40.6533 169.163 40.1436L176.12 0.689393C176.191 0.29247 176.538 0 176.939 0Z" fill="white"/>
</svg>
