<svg width="49" height="30" viewBox="0 0 49 30" fill="none" xmlns="http://www.w3.org/2000/svg">
<g clip-path="url(#clip0_301_417)">
<path d="M40.7263 18.2487C39.1893 18.8753 37.3941 19.2512 35.3406 19.2826H35.3312V19.458C35.3312 19.693 35.3312 20.072 35.3312 20.072L31.0069 16.4912C30.8904 16.3941 30.8935 16.2124 31.0132 16.1215L35.3249 12.7819L35.3312 13.6247H35.5076C38.3547 13.6215 39.8224 12.2024 40.2192 9.95298C40.6192 7.70361 39.6555 6.28757 36.8052 6.28757H32.9092L31.6085 13.6309L28.6385 15.9492C28.481 16.0745 28.4684 16.3095 28.6133 16.4473L30.7487 18.4649L30.7172 18.6403L28.8338 29.2732C28.7802 29.5708 28.5188 29.7901 28.2165 29.7901H22.33C21.9395 29.7901 21.6434 29.4392 21.7127 29.057L21.9238 27.9323C25.0607 26.3909 26.2669 24.2074 26.6512 23.2957C26.7519 23.0576 26.6701 22.7851 26.4527 22.6409L23.2182 20.5357L25.341 8.51501L28.5472 7.82265C28.6952 7.79132 28.7771 7.63468 28.7204 7.49684L26.4937 2.05824L26.6795 1.05574C26.733 0.758117 26.9945 0.538818 27.2968 0.538818H38.3736C45.5797 0.538818 48.4646 4.58017 47.5135 9.95611C47.082 12.3872 45.8285 14.7337 43.7372 16.4661H42.0932C41.353 16.4661 40.7515 17.0551 40.7389 17.7882L40.7294 18.255L40.7263 18.2487Z" fill="white"/>
<path d="M23.7913 1.26253C24.0118 1.36905 24.2322 1.48183 24.4527 1.59774L25.0227 0.58584L27.5014 6.8797C27.5549 7.01754 27.4731 7.17105 27.3282 7.20238L20.6953 8.63722L21.1866 7.66604L21.1457 7.62531C20.519 7.0614 19.7946 6.66667 18.9788 6.43484C18.1411 6.19987 17.3159 6.08083 16.5065 6.08083C15.1931 6.08083 14.0026 6.33772 12.9349 6.8515C11.8641 7.36529 10.935 8.05451 10.1413 8.91291C9.34451 9.77444 8.70201 10.7331 8.20754 11.7888C7.71307 12.8446 7.37292 13.9004 7.1871 14.9561C6.97923 16.1216 6.96033 17.2462 7.13356 18.3302C7.30363 19.4142 7.65637 20.3728 8.19494 21.2061C8.73036 22.0395 9.44529 22.7005 10.3366 23.1861C11.2279 23.6717 12.2578 23.916 13.4326 23.916C14.2703 23.916 15.1459 23.7782 16.0624 23.4994C16.9758 23.2206 17.8576 22.7851 18.7048 22.1867C19.3914 21.7011 19.9867 21.0902 20.4906 20.354C20.6827 20.0752 21.0701 19.9937 21.3536 20.1817L25.3377 22.7882C25.6306 22.9793 25.7062 23.3709 25.5141 23.6623C24.7015 24.8778 23.6338 25.9336 22.3016 26.8327C20.7772 27.8603 19.1237 28.6466 17.3411 29.1855C15.5553 29.7274 13.8389 29.9969 12.1917 29.9969C10.0405 29.9969 8.14455 29.5583 6.49736 28.6842C4.85016 27.8102 3.50848 26.6416 2.46914 25.1848C1.4298 23.7281 0.714865 22.0865 0.324327 20.2694C-0.066212 18.4492 -0.091408 16.5977 0.242439 14.7086C0.563689 12.9041 1.21249 11.131 2.18883 9.39536C3.16833 7.65977 4.42498 6.08396 5.95879 4.66479C7.49575 3.24875 9.25947 2.11779 11.2531 1.2688C13.2373 0.422932 15.4042 0 17.7505 0C20.0969 0 22.0559 0.410401 23.7188 1.23434" fill="#BABAB8"/>
<path d="M49 21.4976V24.3484C49 24.5458 48.8394 24.7056 48.641 24.7056H45.6364V28.0765C45.6364 28.2739 45.4757 28.4337 45.2773 28.4337H42.0428C41.8444 28.4337 41.6837 28.2739 41.6837 28.0765V24.7056H38.6791C38.4807 24.7056 38.3201 24.5458 38.3201 24.3484V21.4976C38.3201 21.3002 38.4807 21.1404 38.6791 21.1404H41.6837V17.7695C41.6837 17.5721 41.8444 17.4124 42.0428 17.4124H45.2773C45.4757 17.4124 45.6364 17.5721 45.6364 17.7695V21.1404H48.641C48.8394 21.1404 49 21.3002 49 21.4976Z" fill="white"/>
</g>
<defs>
<clipPath id="clip0_301_417">
<rect width="49" height="30" fill="white"/>
</clipPath>
</defs>
</svg>
