<svg width="17" height="18" viewBox="0 0 17 18" fill="none" xmlns="http://www.w3.org/2000/svg">
<mask id="mask0_1231_49" style="mask-type:alpha" maskUnits="userSpaceOnUse" x="0" y="0" width="17" height="18">
<rect width="16.2" height="17.3179" fill="#D9D9D9"/>
</mask>
<g mask="url(#mask0_1231_49)">
<path d="M1.63232 15.1748H14.6162V14.2903C14.6162 13.0841 14.0211 12.1259 12.8309 11.4156C11.6408 10.7053 10.0719 10.3502 8.12428 10.3502C6.17669 10.3502 4.6078 10.7053 3.41761 11.4156C2.22742 12.1259 1.63232 13.0841 1.63232 14.2903V15.1748ZM8.12428 8.74195C9.01692 8.74195 9.78108 8.427 10.4168 7.79712C11.0524 7.16723 11.3703 6.41003 11.3703 5.52551C11.3703 4.64099 11.0524 3.88379 10.4168 3.25391C9.78108 2.62402 9.01692 2.30908 8.12428 2.30908C7.23164 2.30908 6.46748 2.62402 5.83181 3.25391C5.19614 3.88379 4.8783 4.64099 4.8783 5.52551C4.8783 6.41003 5.19614 7.16723 5.83181 7.79712C6.46748 8.427 7.23164 8.74195 8.12428 8.74195Z" fill="#FF7E0B"/>
</g>
</svg>
